<?xml version="1.0" standalone="no"?>
<!DOCTYPE svg PUBLIC "-//W3C//DTD SVG 20010904//EN"
 "http://www.w3.org/TR/2001/REC-SVG-20010904/DTD/svg10.dtd">
<svg version="1.0" xmlns="http://www.w3.org/2000/svg"
 width="200.000000pt" height="200.000000pt" viewBox="0 0 200.000000 200.000000"
 preserveAspectRatio="xMidYMid meet">

<g transform="translate(0.000000,200.000000) scale(0.100000,-0.100000)"
fill="#000000" stroke="none">
<path d="M822 1947 c-29 -30 -19 2 -202 -682 -119 -444 -159 -609 -155 -633 4
-23 16 -39 38 -52 44 -27 71 -25 107 8 28 25 41 68 195 645 91 339 165 632
165 651 0 75 -98 117 -148 63z"/>
<path d="M1393 1045 c-12 -8 -28 -36 -37 -63 -37 -116 -226 -836 -226 -863 0
-41 48 -89 89 -89 69 0 71 6 202 490 82 304 118 453 114 472 -13 57 -93 87
-142 53z"/>
</g>
</svg>
